<?xml version="1.0" encoding="iso-8859-1"?>
<!-- Generator: Adobe Illustrator 19.0.0, SVG Export Plug-In . SVG Version: 6.00 Build 0)  -->
<svg version="1.1" id="Layer_1" xmlns="http://www.w3.org/2000/svg" xmlns:xlink="http://www.w3.org/1999/xlink" x="0px" y="0px"
	 viewBox="0 0 194.576 194.576" style="enable-background:new 0 0 194.576 194.576;" xml:space="preserve">
<g>
	<g>
		<g>
			<path d="M145.922,48.644H48.654C21.825,48.644,0,70.465,0,97.288c0,26.823,21.825,48.644,48.654,48.644h97.268
				c26.83,0,48.654-21.821,48.654-48.644S172.752,48.644,145.922,48.644z M145.922,138.983H48.654
				c-22.995,0-41.705-18.703-41.705-41.695c0-22.992,18.71-41.695,41.705-41.695h97.268c22.995,0,41.705,18.703,41.705,41.695
				C187.627,120.28,168.917,138.983,145.922,138.983z"/>
			<path d="M72.966,85.127c0-8.622-7.024-15.636-15.656-15.636H38.22c-1.92,0-3.475,1.554-3.475,3.475v24.322v24.322
				c0,1.92,1.554,3.475,3.475,3.475h19.09c8.632,0,15.656-7.014,15.656-15.636c0-4.937-2.348-9.293-5.937-12.161
				C70.618,94.421,72.966,90.064,72.966,85.127z M57.31,118.135H41.695v-17.373H57.31c4.802,0.001,8.707,3.896,8.707,8.687
				C66.017,114.24,62.112,118.135,57.31,118.135z M57.31,93.813H41.695V76.441H57.31c4.802,0,8.707,3.895,8.707,8.686
				C66.017,89.918,62.112,93.813,57.31,93.813z"/>
			<path d="M118.136,69.492c-1.92,0-3.475,1.554-3.475,3.475v34.05c0,6.132-5.456,11.119-12.161,11.119s-12.161-4.988-12.161-11.119
				v-34.05c0-1.92-1.554-3.475-3.475-3.475c-1.92,0-3.475,1.554-3.475,3.475v34.05c0,9.962,8.575,18.068,19.11,18.068
				c10.535,0,19.11-8.106,19.11-18.068v-34.05C121.61,71.046,120.056,69.492,118.136,69.492z"/>
			<path d="M162.263,70.774c-1.703-0.889-3.807-0.21-4.679,1.496l-11.652,22.636L134.28,72.271
				c-0.876-1.707-2.973-2.382-4.679-1.496c-1.703,0.876-2.375,2.973-1.496,4.679l14.353,27.886v18.27
				c0,1.92,1.554,3.475,3.475,3.475c1.921,0,3.475-1.554,3.475-3.475v-18.27l14.353-27.887
				C164.639,73.746,163.967,71.65,162.263,70.774z"/>
		</g>
	</g>
</g>
<g>
</g>
<g>
</g>
<g>
</g>
<g>
</g>
<g>
</g>
<g>
</g>
<g>
</g>
<g>
</g>
<g>
</g>
<g>
</g>
<g>
</g>
<g>
</g>
<g>
</g>
<g>
</g>
<g>
</g>
</svg>
