<?xml version="1.0" standalone="no"?>
<!DOCTYPE svg PUBLIC "-//W3C//DTD SVG 20010904//EN"
 "http://www.w3.org/TR/2001/REC-SVG-20010904/DTD/svg10.dtd">
<svg version="1.0" xmlns="http://www.w3.org/2000/svg"
 width="300.000000pt" height="200.000000pt" viewBox="0 0 100.000000 100.000000"
 preserveAspectRatio="xMidYMid meet">

<g transform="translate(0.000000,100.000000) scale(0.100000,-0.100000)"
fill="#000000" stroke="none">
<path d="M424 731 c-66 -77 -80 -87 -101 -69 -21 17 -53 35 -85 49 -16 6 -28
14 -28 19 0 4 -8 11 -17 14 -10 3 -29 13 -43 21 -51 29 -29 -14 69 -135 53
-67 54 -72 13 -121 -20 -25 -46 -54 -57 -65 -41 -42 -75 -84 -75 -93 0 -5 7
-12 16 -15 37 -14 364 0 364 16 0 5 -29 46 -64 92 -35 45 -66 91 -68 102 -4
24 33 31 52 9 7 -8 17 -15 22 -15 5 0 35 -17 66 -37 31 -21 64 -41 72 -46 8
-4 29 -16 45 -27 17 -11 37 -23 45 -27 8 -3 33 -18 55 -32 60 -38 78 -49 95
-57 8 -4 18 -12 22 -18 4 -6 10 -8 13 -4 7 7 -334 508 -346 508 -3 0 -33 -31
-65 -69z m152 -122 c39 -59 74 -114 77 -123 11 -29 -11 -26 -60 7 -77 52 -157
101 -175 109 -25 10 -23 19 18 72 21 28 42 46 52 44 9 -2 48 -51 88 -109z
m-232 -143 c20 -24 36 -54 36 -65 0 -20 -6 -21 -86 -21 -84 0 -85 0 -78 23 8
25 72 107 84 107 4 0 24 -20 44 -44z"/>
</g>
</svg>
